<?xml version="1.0" encoding="UTF-8" standalone="no"?>
<!DOCTYPE svg PUBLIC "-//W3C//DTD SVG 1.1//EN" "http://www.w3.org/Graphics/SVG/1.1/DTD/svg11.dtd">
<svg width="100%" height="100%" viewBox="0 0 870 600" version="1.1" xmlns="http://www.w3.org/2000/svg" xmlns:xlink="http://www.w3.org/1999/xlink" xml:space="preserve" xmlns:serif="http://www.serif.com/" style="fill-rule:evenodd;clip-rule:evenodd;stroke-linejoin:round;stroke-miterlimit:2;">
    <defs>
        <style type="text/css"><![CDATA[
        
        .background {
            animation-duration: 1s, 4s;
            animation-name: fill-letter, fill-letter-rotate;
            animation-delay: 2s, 4s;
            animation-fill-mode: forwards, none;
            animation-direction: normal, alternate;
            animation-timing-function: ease-in-out, linear;
            animation-iteration-count: 1, infinite;
            animation-play-state: paused, paused;
            filter: blur(2px);
            fill: #002FA7;
            stroke: none;
            transform: translate(4px,8px);
            fill-opacity: 0;
        }

        .line {
            animation-duration: 3s;
            animation-name: dash-letter;
            animation-delay: 0s;
            animation-fill-mode: forwards;
            animation-timing-function: ease-in-out;
            animation-play-state: paused;
            animation-direction: normal;
            fill: none;
            stroke: black;
            stroke-width: 4;
        }

        .lastname.background  {
            filter: hue-rotate(60deg) blur(2px);
            animation-direction: normal, alternate-reverse;
        }

        .line.letter-1 {
            stroke-dasharray: 1684;
            stroke-dashoffset: 1684;
        }

        .line.letter-2 {
            stroke-dasharray: 840;
            stroke-dashoffset: 840;
        }

        .line.letter-3 {
            stroke-dasharray: 547;
            stroke-dashoffset: 547;
        }

        .line.letter-4 {
            stroke-dasharray: 658;
            stroke-dashoffset: 658;
        }

        .line.letter-5 {
            stroke-dasharray: 820;
            stroke-dashoffset: 820;
        }

        .line.letter-6 {
            stroke-dasharray: 1255;
            stroke-dashoffset: 1255;
        }

        .line.letter-7 {
            stroke-dasharray: 460;
            stroke-dashoffset: 460;
        }

        .line.letter-8 {
            stroke-dasharray: 587;
            stroke-dashoffset: 587;
        }

        .line.letter-9 {
            stroke-dasharray: 807;
            stroke-dashoffset: 807;
        }

        .line.letter-10 {
            stroke-dasharray: 936;
            stroke-dashoffset: 936;
        }

        @keyframes dash-letter {
            to {
                stroke-dashoffset: 0;
            }
        }

        @keyframes fill-letter {
            from {
                fill-opacity: 0;
            }
            to {
                fill-opacity: 0.7;
            }
        }

        @keyframes fill-letter-rotate {
            from {
                filter: hue-rotate(0deg) blur(2px);
            }
            33% {
                filter: hue-rotate(0deg) blur(2px);
            }
            66% {
                filter: hue-rotate(60deg) blur(2px);
            }
            to {
                filter: hue-rotate(60deg) blur(2px);
            }
        }

        ]]>
        </style>
    </defs>
    
    <!-- F -->
    <path class="background" d="M161.466,187.089C167.162,175.695 172.859,164.37 178.556,153.112C184.252,141.855 189.406,131.343 194.018,121.578C198.629,111.812 202.563,103.064 205.818,95.333C209.073,87.601 210.972,81.43 211.515,76.819C212.057,71.936 211.65,67.731 210.294,64.205C208.937,60.678 206.7,57.83 203.58,55.66C200.46,53.49 196.798,51.794 192.594,50.573C188.389,49.353 183.71,48.607 178.556,48.335C169.604,47.793 158.956,47.996 146.614,48.946C134.271,49.895 122.403,51.658 111.01,54.236C99.617,56.813 89.783,60.407 81.51,65.018C73.236,69.63 68.828,75.327 68.285,82.108C68.014,85.906 68.692,89.297 70.32,92.281C71.676,94.722 74.185,97.028 77.848,99.198C81.51,101.368 87.003,102.182 94.327,101.639C95.683,101.639 97.311,101.504 99.21,101.233C100.837,100.961 102.872,100.622 105.313,100.215C107.755,99.808 110.603,99.198 113.858,98.384L93.92,125.24C90.122,130.665 86.053,133.92 81.713,135.005C77.373,136.09 73.439,136.362 69.913,135.819C68.014,135.548 64.284,134.598 58.723,132.971C53.162,131.343 47.601,128.902 42.04,125.647C36.479,122.391 31.664,117.983 27.595,112.422C23.526,106.861 21.899,99.876 22.712,91.467C23.797,81.701 28.002,72.682 35.326,64.408C42.651,56.134 52.891,49.014 66.047,43.046C79.204,37.078 94.937,32.466 113.248,29.211C131.558,25.956 152.243,24.328 175.3,24.328C192.661,24.328 206.496,26.159 216.804,29.821C227.112,33.484 234.64,38.231 239.387,44.063C244.134,49.895 246.44,56.677 246.305,64.408C246.169,72.139 244.473,80.074 241.218,88.212C239.591,92.01 237.217,97.231 234.098,103.877C230.978,110.524 227.248,118.255 222.908,127.071C218.567,135.887 213.956,145.585 209.073,156.164C204.19,166.744 199.307,177.73 194.425,189.123C201.749,189.666 208.463,190.344 214.566,191.158C220.67,191.972 225.485,192.65 229.011,193.192C233.08,194.277 234.437,196.041 233.08,198.482C230.639,203.365 228.265,207.027 225.959,209.468C223.654,211.91 221.144,213.605 218.432,214.555C215.719,215.504 212.735,215.911 209.48,215.775C206.225,215.64 202.563,215.436 198.494,215.165C196.052,215.165 193.611,215.097 191.169,214.961C188.728,214.826 186.151,214.622 183.438,214.351C178.284,226.558 173.334,238.63 168.586,250.565C163.839,262.501 159.499,273.826 155.566,284.542C151.632,295.257 148.174,305.09 145.19,314.042C142.206,322.994 140.171,330.454 139.086,336.421C137.459,344.831 136.238,352.697 135.424,360.022C134.881,366.261 134.61,372.771 134.61,379.553C134.61,386.335 135.695,391.76 137.865,395.829C132.169,397.457 127.218,398.813 123.014,399.898C118.809,400.983 115.215,401.797 112.231,402.339C108.975,403.153 106.263,403.831 104.093,404.374C96.497,406.273 91.14,406.069 88.02,403.764C84.9,401.458 84.019,395.965 85.375,387.284C85.918,381.316 86.799,374.602 88.02,367.142C89.241,359.683 91.14,351.273 93.717,341.915C96.294,332.556 99.685,322.112 103.889,310.583C108.094,299.054 113.451,286.237 119.962,272.131C123.76,263.993 128.1,254.973 132.983,245.072C137.865,235.171 143.019,224.524 148.445,213.13C136.509,213.13 123.624,213.944 109.789,215.572C102.194,216.657 94.734,217.878 87.41,219.234C81.171,220.59 74.457,222.15 67.268,223.913C60.08,225.676 53.366,227.643 47.126,229.813C46.313,227.643 45.838,225.473 45.702,223.303C45.567,221.133 45.635,219.098 45.906,217.199C46.177,215.301 46.584,213.402 47.126,211.503C47.669,209.604 48.483,207.705 49.568,205.806C51.195,202.551 53.773,198.482 57.299,193.599C70.049,191.972 82.256,190.751 93.92,189.937C105.585,189.123 115.893,188.445 124.845,187.903C135.424,187.36 145.325,187.089 154.548,187.089C155.905,186.817 157.058,186.75 158.007,186.885C158.956,187.021 160.109,187.089 161.466,187.089Z" style="fill-rule:nonzero;"/>
    <path class="line letter-1" d="M161.466,187.089C167.162,175.695 172.859,164.37 178.556,153.112C184.252,141.855 189.406,131.343 194.018,121.578C198.629,111.812 202.563,103.064 205.818,95.333C209.073,87.601 210.972,81.43 211.515,76.819C212.057,71.936 211.65,67.731 210.294,64.205C208.937,60.678 206.7,57.83 203.58,55.66C200.46,53.49 196.798,51.794 192.594,50.573C188.389,49.353 183.71,48.607 178.556,48.335C169.604,47.793 158.956,47.996 146.614,48.946C134.271,49.895 122.403,51.658 111.01,54.236C99.617,56.813 89.783,60.407 81.51,65.018C73.236,69.63 68.828,75.327 68.285,82.108C68.014,85.906 68.692,89.297 70.32,92.281C71.676,94.722 74.185,97.028 77.848,99.198C81.51,101.368 87.003,102.182 94.327,101.639C95.683,101.639 97.311,101.504 99.21,101.233C100.837,100.961 102.872,100.622 105.313,100.215C107.755,99.808 110.603,99.198 113.858,98.384L93.92,125.24C90.122,130.665 86.053,133.92 81.713,135.005C77.373,136.09 73.439,136.362 69.913,135.819C68.014,135.548 64.284,134.598 58.723,132.971C53.162,131.343 47.601,128.902 42.04,125.647C36.479,122.391 31.664,117.983 27.595,112.422C23.526,106.861 21.899,99.876 22.712,91.467C23.797,81.701 28.002,72.682 35.326,64.408C42.651,56.134 52.891,49.014 66.047,43.046C79.204,37.078 94.937,32.466 113.248,29.211C131.558,25.956 152.243,24.328 175.3,24.328C192.661,24.328 206.496,26.159 216.804,29.821C227.112,33.484 234.64,38.231 239.387,44.063C244.134,49.895 246.44,56.677 246.305,64.408C246.169,72.139 244.473,80.074 241.218,88.212C239.591,92.01 237.217,97.231 234.098,103.877C230.978,110.524 227.248,118.255 222.908,127.071C218.567,135.887 213.956,145.585 209.073,156.164C204.19,166.744 199.307,177.73 194.425,189.123C201.749,189.666 208.463,190.344 214.566,191.158C220.67,191.972 225.485,192.65 229.011,193.192C233.08,194.277 234.437,196.041 233.08,198.482C230.639,203.365 228.265,207.027 225.959,209.468C223.654,211.91 221.144,213.605 218.432,214.555C215.719,215.504 212.735,215.911 209.48,215.775C206.225,215.64 202.563,215.436 198.494,215.165C196.052,215.165 193.611,215.097 191.169,214.961C188.728,214.826 186.151,214.622 183.438,214.351C178.284,226.558 173.334,238.63 168.586,250.565C163.839,262.501 159.499,273.826 155.566,284.542C151.632,295.257 148.174,305.09 145.19,314.042C142.206,322.994 140.171,330.454 139.086,336.421C137.459,344.831 136.238,352.697 135.424,360.022C134.881,366.261 134.61,372.771 134.61,379.553C134.61,386.335 135.695,391.76 137.865,395.829C132.169,397.457 127.218,398.813 123.014,399.898C118.809,400.983 115.215,401.797 112.231,402.339C108.975,403.153 106.263,403.831 104.093,404.374C96.497,406.273 91.14,406.069 88.02,403.764C84.9,401.458 84.019,395.965 85.375,387.284C85.918,381.316 86.799,374.602 88.02,367.142C89.241,359.683 91.14,351.273 93.717,341.915C96.294,332.556 99.685,322.112 103.889,310.583C108.094,299.054 113.451,286.237 119.962,272.131C123.76,263.993 128.1,254.973 132.983,245.072C137.865,235.171 143.019,224.524 148.445,213.13C136.509,213.13 123.624,213.944 109.789,215.572C102.194,216.657 94.734,217.878 87.41,219.234C81.171,220.59 74.457,222.15 67.268,223.913C60.08,225.676 53.366,227.643 47.126,229.813C46.313,227.643 45.838,225.473 45.702,223.303C45.567,221.133 45.635,219.098 45.906,217.199C46.177,215.301 46.584,213.402 47.126,211.503C47.669,209.604 48.483,207.705 49.568,205.806C51.195,202.551 53.773,198.482 57.299,193.599C70.049,191.972 82.256,190.751 93.92,189.937C105.585,189.123 115.893,188.445 124.845,187.903C135.424,187.36 145.325,187.089 154.548,187.089C155.905,186.817 157.058,186.75 158.007,186.885C158.956,187.021 160.109,187.089 161.466,187.089Z" style="fill-rule:nonzero;"/>
    
    <!-- e -->
    <path class="background" d="M413.683,207.208C406.897,217.16 399.207,226.83 390.611,236.217C382.016,245.604 372.912,253.973 363.299,261.324C353.686,268.675 343.847,274.613 333.781,279.136C323.716,283.66 313.933,285.922 304.433,285.922C299.457,285.922 294.085,284.735 288.317,282.36C282.549,279.985 277.29,276.309 272.54,271.333C267.79,266.357 264.001,259.91 261.174,251.994C258.347,244.077 257.498,234.464 258.629,223.154C259.534,213.881 262.418,204.098 267.281,193.806C272.144,183.515 278.138,174.071 285.263,165.476C292.388,156.881 300.418,149.756 309.353,144.101C318.287,138.446 327.278,135.619 336.326,135.619C344.921,135.619 351.141,137.768 354.986,142.065C358.832,146.363 360.528,151.678 360.076,158.012C359.397,165.023 357.418,171.47 354.138,177.351C350.858,183.232 346.957,188.547 342.433,193.297C337.909,198.047 333.103,202.345 328.013,206.19C322.924,210.035 318.117,213.541 313.594,216.708C308.617,220.101 303.867,223.324 299.344,226.378C294.82,229.431 290.862,232.202 287.469,234.69C287.695,240.345 288.713,245.095 290.522,248.94C292.332,252.785 294.594,255.895 297.308,258.27C300.022,260.645 303.132,262.342 306.638,263.36C310.144,264.377 313.707,264.886 317.326,264.886C325.016,264.886 333.046,262.455 341.415,257.592C349.784,252.729 357.983,246.848 366.013,239.949C374.043,233.05 381.507,225.869 388.406,218.404C395.305,210.94 401.016,204.494 405.54,199.065C407.123,197.256 408.763,196.181 410.46,195.842C412.156,195.503 413.513,195.729 414.531,196.52C415.549,197.312 416.058,198.669 416.058,200.592C416.058,202.514 415.266,204.72 413.683,207.208ZM326.826,154.958C324.111,154.958 320.888,156.315 317.156,159.029C313.424,161.744 309.748,165.645 306.129,170.735C302.51,175.824 299.117,182.044 295.951,189.395C292.784,196.747 290.409,205.172 288.826,214.672C291.54,212.636 294.481,210.544 297.647,208.395C300.814,206.247 303.981,203.928 307.147,201.44C316.873,193.976 323.659,187.416 327.504,181.762C331.35,176.107 333.498,171.244 333.951,167.172C334.403,162.875 333.951,159.765 332.594,157.842C331.236,155.919 329.314,154.958 326.826,154.958Z" style="fill-rule:nonzero;"/>
    <path class="line letter-2" d="M413.683,207.208C406.897,217.16 399.207,226.83 390.611,236.217C382.016,245.604 372.912,253.973 363.299,261.324C353.686,268.675 343.847,274.613 333.781,279.136C323.716,283.66 313.933,285.922 304.433,285.922C299.457,285.922 294.085,284.735 288.317,282.36C282.549,279.985 277.29,276.309 272.54,271.333C267.79,266.357 264.001,259.91 261.174,251.994C258.347,244.077 257.498,234.464 258.629,223.154C259.534,213.881 262.418,204.098 267.281,193.806C272.144,183.515 278.138,174.071 285.263,165.476C292.388,156.881 300.418,149.756 309.353,144.101C318.287,138.446 327.278,135.619 336.326,135.619C344.921,135.619 351.141,137.768 354.986,142.065C358.832,146.363 360.528,151.678 360.076,158.012C359.397,165.023 357.418,171.47 354.138,177.351C350.858,183.232 346.957,188.547 342.433,193.297C337.909,198.047 333.103,202.345 328.013,206.19C322.924,210.035 318.117,213.541 313.594,216.708C308.617,220.101 303.867,223.324 299.344,226.378C294.82,229.431 290.862,232.202 287.469,234.69C287.695,240.345 288.713,245.095 290.522,248.94C292.332,252.785 294.594,255.895 297.308,258.27C300.022,260.645 303.132,262.342 306.638,263.36C310.144,264.377 313.707,264.886 317.326,264.886C325.016,264.886 333.046,262.455 341.415,257.592C349.784,252.729 357.983,246.848 366.013,239.949C374.043,233.05 381.507,225.869 388.406,218.404C395.305,210.94 401.016,204.494 405.54,199.065C407.123,197.256 408.763,196.181 410.46,195.842C412.156,195.503 413.513,195.729 414.531,196.52C415.549,197.312 416.058,198.669 416.058,200.592C416.058,202.514 415.266,204.72 413.683,207.208ZM326.826,154.958C324.111,154.958 320.888,156.315 317.156,159.029C313.424,161.744 309.748,165.645 306.129,170.735C302.51,175.824 299.117,182.044 295.951,189.395C292.784,196.747 290.409,205.172 288.826,214.672C291.54,212.636 294.481,210.544 297.647,208.395C300.814,206.247 303.981,203.928 307.147,201.44C316.873,193.976 323.659,187.416 327.504,181.762C331.35,176.107 333.498,171.244 333.951,167.172C334.403,162.875 333.951,159.765 332.594,157.842C331.236,155.919 329.314,154.958 326.826,154.958Z" style="fill-rule:nonzero;"/>
    
    <!-- l -->
    <path class="background" d="M384.165,272.351C394.117,230.505 402.09,196.916 408.085,171.583C414.079,146.25 418.659,126.91 421.826,113.565C425.445,97.732 427.933,86.762 429.29,80.655C429.968,76.357 430.534,72.172 430.986,68.101C431.439,64.482 431.665,60.75 431.665,56.905C431.665,53.059 431.326,49.553 430.647,46.387C432.456,45.256 434.436,44.351 436.584,43.673C438.733,42.994 440.826,42.428 442.861,41.976C445.349,41.298 447.837,40.732 450.325,40.28C452.814,39.827 455.075,39.601 457.111,39.601C458.921,39.601 460.617,39.771 462.2,40.11C463.784,40.449 464.802,41.184 465.254,42.315C466.611,43.446 467.233,45.708 467.12,49.101C467.007,52.494 466.724,56 466.272,59.619C465.367,63.917 464.349,68.553 463.218,73.53C460.504,83.256 456.772,97.28 452.022,115.601C447.95,131.208 442.465,152.47 435.567,179.387C428.668,206.303 420.016,240.232 409.611,281.172C408.48,282.303 407.123,283.095 405.54,283.547C403.957,283.999 402.486,284.226 401.129,284.226C399.546,284.226 397.849,284.113 396.04,283.886C394.457,283.434 392.873,282.755 391.29,281.851C389.933,280.946 388.576,279.758 387.218,278.288C385.861,276.818 384.843,274.839 384.165,272.351Z" style="fill-rule:nonzero;"/>
    <path class="line letter-3" d="M384.165,272.351C394.117,230.505 402.09,196.916 408.085,171.583C414.079,146.25 418.659,126.91 421.826,113.565C425.445,97.732 427.933,86.762 429.29,80.655C429.968,76.357 430.534,72.172 430.986,68.101C431.439,64.482 431.665,60.75 431.665,56.905C431.665,53.059 431.326,49.553 430.647,46.387C432.456,45.256 434.436,44.351 436.584,43.673C438.733,42.994 440.826,42.428 442.861,41.976C445.349,41.298 447.837,40.732 450.325,40.28C452.814,39.827 455.075,39.601 457.111,39.601C458.921,39.601 460.617,39.771 462.2,40.11C463.784,40.449 464.802,41.184 465.254,42.315C466.611,43.446 467.233,45.708 467.12,49.101C467.007,52.494 466.724,56 466.272,59.619C465.367,63.917 464.349,68.553 463.218,73.53C460.504,83.256 456.772,97.28 452.022,115.601C447.95,131.208 442.465,152.47 435.567,179.387C428.668,206.303 420.016,240.232 409.611,281.172C408.48,282.303 407.123,283.095 405.54,283.547C403.957,283.999 402.486,284.226 401.129,284.226C399.546,284.226 397.849,284.113 396.04,283.886C394.457,283.434 392.873,282.755 391.29,281.851C389.933,280.946 388.576,279.758 387.218,278.288C385.861,276.818 384.843,274.839 384.165,272.351Z" style="fill-rule:nonzero;"/>
    
    <!-- i -->
    <path class="background" d="M539.897,77.94C539.218,80.428 537.918,82.86 535.995,85.235C534.072,87.61 531.924,89.533 529.549,91.003C527.174,92.473 524.742,93.434 522.254,93.887C519.766,94.339 517.73,93.887 516.147,92.53C511.397,88.911 508.909,85.009 508.683,80.824C508.456,76.64 509.474,72.681 511.736,68.949C513.998,65.217 516.825,62.05 520.218,59.449C523.611,56.848 526.552,55.321 529.04,54.869C531.528,54.417 533.62,54.925 535.316,56.396C537.013,57.866 538.313,59.789 539.218,62.164C540.123,64.539 540.632,67.196 540.745,70.137C540.858,73.077 540.575,75.678 539.897,77.94ZM493.075,150.208C494.206,148.851 496.355,147.72 499.522,146.815C502.688,145.91 505.968,145.175 509.361,144.61C512.754,144.044 515.864,143.705 518.691,143.592C521.519,143.479 523.159,143.535 523.611,143.762C523.837,143.988 523.272,146.363 521.915,150.887C520.557,155.41 518.861,160.726 516.825,166.833C514.79,172.94 512.641,179.217 510.379,185.663C508.117,192.11 506.421,197.369 505.29,201.44C504.159,205.511 502.802,210.092 501.218,215.181C499.635,220.27 498.221,225.247 496.977,230.11C495.733,234.973 494.885,239.553 494.433,243.851C493.98,248.148 494.319,251.428 495.45,253.69C496.581,256.404 497.825,258.27 499.183,259.288C500.54,260.306 502.01,260.815 503.593,260.815C508.117,260.815 513.828,258.327 520.727,253.351C527.626,248.374 534.638,242.437 541.763,235.538C548.888,228.639 555.504,221.628 561.611,214.503C567.718,207.378 572.242,201.666 575.182,197.369C576.992,195.107 578.858,193.637 580.781,192.958C582.703,192.279 584.287,192.392 585.531,193.297C586.775,194.202 587.453,195.672 587.566,197.708C587.679,199.744 586.944,202.119 585.361,204.833C581.742,211.166 576.426,218.687 569.415,227.395C562.403,236.104 554.938,244.473 547.022,252.502C539.105,260.532 531.358,267.374 523.781,273.029C516.203,278.684 510.04,281.624 505.29,281.851C501.444,282.077 497.656,281.455 493.924,279.985C490.191,278.514 486.799,276.479 483.745,273.877C480.692,271.276 478.147,268.223 476.111,264.717C474.075,261.211 472.944,257.535 472.718,253.69C472.04,248.035 472.04,240.288 472.718,230.449C473.397,220.61 474.641,210.544 476.45,200.253C478.26,189.961 480.578,180.178 483.406,170.904C486.233,161.631 489.456,154.732 493.075,150.208Z" style="fill-rule:nonzero;"/>
    <path class="line letter-4" d="M539.897,77.94C539.218,80.428 537.918,82.86 535.995,85.235C534.072,87.61 531.924,89.533 529.549,91.003C527.174,92.473 524.742,93.434 522.254,93.887C519.766,94.339 517.73,93.887 516.147,92.53C511.397,88.911 508.909,85.009 508.683,80.824C508.456,76.64 509.474,72.681 511.736,68.949C513.998,65.217 516.825,62.05 520.218,59.449C523.611,56.848 526.552,55.321 529.04,54.869C531.528,54.417 533.62,54.925 535.316,56.396C537.013,57.866 538.313,59.789 539.218,62.164C540.123,64.539 540.632,67.196 540.745,70.137C540.858,73.077 540.575,75.678 539.897,77.94ZM493.075,150.208C494.206,148.851 496.355,147.72 499.522,146.815C502.688,145.91 505.968,145.175 509.361,144.61C512.754,144.044 515.864,143.705 518.691,143.592C521.519,143.479 523.159,143.535 523.611,143.762C523.837,143.988 523.272,146.363 521.915,150.887C520.557,155.41 518.861,160.726 516.825,166.833C514.79,172.94 512.641,179.217 510.379,185.663C508.117,192.11 506.421,197.369 505.29,201.44C504.159,205.511 502.802,210.092 501.218,215.181C499.635,220.27 498.221,225.247 496.977,230.11C495.733,234.973 494.885,239.553 494.433,243.851C493.98,248.148 494.319,251.428 495.45,253.69C496.581,256.404 497.825,258.27 499.183,259.288C500.54,260.306 502.01,260.815 503.593,260.815C508.117,260.815 513.828,258.327 520.727,253.351C527.626,248.374 534.638,242.437 541.763,235.538C548.888,228.639 555.504,221.628 561.611,214.503C567.718,207.378 572.242,201.666 575.182,197.369C576.992,195.107 578.858,193.637 580.781,192.958C582.703,192.279 584.287,192.392 585.531,193.297C586.775,194.202 587.453,195.672 587.566,197.708C587.679,199.744 586.944,202.119 585.361,204.833C581.742,211.166 576.426,218.687 569.415,227.395C562.403,236.104 554.938,244.473 547.022,252.502C539.105,260.532 531.358,267.374 523.781,273.029C516.203,278.684 510.04,281.624 505.29,281.851C501.444,282.077 497.656,281.455 493.924,279.985C490.191,278.514 486.799,276.479 483.745,273.877C480.692,271.276 478.147,268.223 476.111,264.717C474.075,261.211 472.944,257.535 472.718,253.69C472.04,248.035 472.04,240.288 472.718,230.449C473.397,220.61 474.641,210.544 476.45,200.253C478.26,189.961 480.578,180.178 483.406,170.904C486.233,161.631 489.456,154.732 493.075,150.208Z" style="fill-rule:nonzero;"/>
    
    <!-- x -->
    <path class="background" d="M708.861,232.994C699.361,244.982 690.935,254.425 683.584,261.324C676.233,268.223 669.73,273.368 664.075,276.761C658.42,280.154 653.444,282.303 649.147,283.208C644.849,284.113 641.004,284.565 637.611,284.565C633.313,284.565 629.694,283.547 626.754,281.511C623.813,279.476 621.325,276.988 619.289,274.047C617.254,271.107 615.67,268.053 614.539,264.886C613.408,261.72 612.504,259.005 611.825,256.744C610.92,254.255 609.959,251.428 608.941,248.261C607.923,245.095 606.849,241.589 605.718,237.744C601.194,242.494 596.444,247.583 591.468,253.011C587.17,257.535 582.307,262.681 576.879,268.449C571.45,274.217 565.909,280.041 560.254,285.922C558.218,286.374 556.409,286.374 554.825,285.922C553.242,285.47 551.885,285.017 550.754,284.565C549.397,283.886 548.266,283.095 547.361,282.19C546.682,281.511 546.004,280.72 545.325,279.815C544.873,279.136 544.364,278.288 543.799,277.27C543.233,276.252 543.063,275.178 543.29,274.047C549.849,266.583 556.352,259.175 562.798,251.824C569.245,244.473 575.069,237.857 580.272,231.976C586.153,225.19 591.807,218.631 597.236,212.297C594.069,203.702 591.242,195.672 588.754,188.208C586.266,180.744 584.456,175.428 583.325,172.262C581.063,165.702 579.084,160.273 577.388,155.976C575.691,151.678 572.807,148.625 568.736,146.815C571.45,144.327 574.108,142.348 576.709,140.878C579.31,139.407 581.629,138.333 583.665,137.654C586.153,136.75 588.301,136.297 590.111,136.297C595.313,136.297 599.894,140.878 603.852,150.038C607.81,159.199 611.825,171.809 615.897,187.869C615.897,188.547 616.123,189.339 616.575,190.244C621.325,184.589 625.905,179.273 630.316,174.297C634.727,169.321 638.572,164.91 641.852,161.065C645.132,157.22 647.789,154.166 649.825,151.904C651.861,149.643 653.105,148.285 653.557,147.833C658.081,142.631 662.152,139.69 665.771,139.012C669.391,138.333 672.67,139.125 675.611,141.387C676.968,142.291 678.438,143.196 680.021,144.101C682.962,145.91 686.468,147.607 690.539,149.19C686.694,152.809 682.453,156.937 677.816,161.574C673.179,166.211 668.825,170.678 664.754,174.976C660.004,179.952 655.254,184.928 650.504,189.904C647.111,193.297 643.096,197.482 638.459,202.458C633.822,207.434 628.903,212.863 623.7,218.744C625.283,224.398 626.98,229.714 628.789,234.69C630.599,239.666 632.465,244.077 634.388,247.922C636.31,251.767 638.289,254.821 640.325,257.083C642.361,259.345 644.51,260.476 646.772,260.476C650.391,260.476 654.462,259.514 658.986,257.592C663.51,255.669 668.26,253.011 673.236,249.619C678.212,246.226 683.245,242.267 688.334,237.744C693.423,233.22 698.456,228.47 703.432,223.494C705.242,221.684 706.995,220.666 708.691,220.44C710.387,220.214 711.575,220.553 712.254,221.458C712.932,222.363 713.102,223.833 712.762,225.869C712.423,227.904 711.123,230.279 708.861,232.994Z" style="fill-rule:nonzero;"/>
    <path class="line letter-5" d="M708.861,232.994C699.361,244.982 690.935,254.425 683.584,261.324C676.233,268.223 669.73,273.368 664.075,276.761C658.42,280.154 653.444,282.303 649.147,283.208C644.849,284.113 641.004,284.565 637.611,284.565C633.313,284.565 629.694,283.547 626.754,281.511C623.813,279.476 621.325,276.988 619.289,274.047C617.254,271.107 615.67,268.053 614.539,264.886C613.408,261.72 612.504,259.005 611.825,256.744C610.92,254.255 609.959,251.428 608.941,248.261C607.923,245.095 606.849,241.589 605.718,237.744C601.194,242.494 596.444,247.583 591.468,253.011C587.17,257.535 582.307,262.681 576.879,268.449C571.45,274.217 565.909,280.041 560.254,285.922C558.218,286.374 556.409,286.374 554.825,285.922C553.242,285.47 551.885,285.017 550.754,284.565C549.397,283.886 548.266,283.095 547.361,282.19C546.682,281.511 546.004,280.72 545.325,279.815C544.873,279.136 544.364,278.288 543.799,277.27C543.233,276.252 543.063,275.178 543.29,274.047C549.849,266.583 556.352,259.175 562.798,251.824C569.245,244.473 575.069,237.857 580.272,231.976C586.153,225.19 591.807,218.631 597.236,212.297C594.069,203.702 591.242,195.672 588.754,188.208C586.266,180.744 584.456,175.428 583.325,172.262C581.063,165.702 579.084,160.273 577.388,155.976C575.691,151.678 572.807,148.625 568.736,146.815C571.45,144.327 574.108,142.348 576.709,140.878C579.31,139.407 581.629,138.333 583.665,137.654C586.153,136.75 588.301,136.297 590.111,136.297C595.313,136.297 599.894,140.878 603.852,150.038C607.81,159.199 611.825,171.809 615.897,187.869C615.897,188.547 616.123,189.339 616.575,190.244C621.325,184.589 625.905,179.273 630.316,174.297C634.727,169.321 638.572,164.91 641.852,161.065C645.132,157.22 647.789,154.166 649.825,151.904C651.861,149.643 653.105,148.285 653.557,147.833C658.081,142.631 662.152,139.69 665.771,139.012C669.391,138.333 672.67,139.125 675.611,141.387C676.968,142.291 678.438,143.196 680.021,144.101C682.962,145.91 686.468,147.607 690.539,149.19C686.694,152.809 682.453,156.937 677.816,161.574C673.179,166.211 668.825,170.678 664.754,174.976C660.004,179.952 655.254,184.928 650.504,189.904C647.111,193.297 643.096,197.482 638.459,202.458C633.822,207.434 628.903,212.863 623.7,218.744C625.283,224.398 626.98,229.714 628.789,234.69C630.599,239.666 632.465,244.077 634.388,247.922C636.31,251.767 638.289,254.821 640.325,257.083C642.361,259.345 644.51,260.476 646.772,260.476C650.391,260.476 654.462,259.514 658.986,257.592C663.51,255.669 668.26,253.011 673.236,249.619C678.212,246.226 683.245,242.267 688.334,237.744C693.423,233.22 698.456,228.47 703.432,223.494C705.242,221.684 706.995,220.666 708.691,220.44C710.387,220.214 711.575,220.553 712.254,221.458C712.932,222.363 713.102,223.833 712.762,225.869C712.423,227.904 711.123,230.279 708.861,232.994Z" style="fill-rule:nonzero;"/>

    <!-- R -->
    <path class="background lastname" d="M276.162,464.873C278.057,464.557 279.952,464.202 281.847,463.807C283.742,463.412 285.795,462.899 288.006,462.267C285.321,459.74 281.768,458.161 277.346,457.529C276.872,460.056 276.477,462.504 276.162,464.873ZM373.049,391.674C372.417,398.465 370.641,405.572 367.719,412.994C364.798,420.417 360.731,427.602 355.519,434.551C350.308,441.5 343.991,447.975 336.568,453.976C329.146,459.977 320.697,464.873 311.221,468.663C312.642,471.348 313.985,474.191 315.248,477.191C316.512,480.192 317.617,483.587 318.565,487.377C319.986,492.431 321.21,497.643 322.236,503.012C323.263,508.382 324.132,513.593 324.842,518.647C325.553,523.7 326.185,528.399 326.737,532.742C327.29,537.085 327.724,540.677 328.04,543.52C328.672,548.258 330.212,551.614 332.66,553.588C335.107,555.562 337.871,556.667 340.951,556.904C344.03,557.141 347.11,556.786 350.189,555.838C353.269,554.891 355.677,553.864 357.414,552.759C357.257,552.917 356.388,554.299 354.809,556.904C353.229,559.51 351.097,562.274 348.413,565.195C345.728,568.117 342.53,570.644 338.819,572.776C335.107,574.908 330.962,575.579 326.382,574.789C323.223,574.316 320.42,573.25 317.972,571.591C315.525,569.933 313.393,567.485 311.576,564.248C309.76,561.01 308.299,556.865 307.194,551.811C306.089,546.758 305.378,540.598 305.062,533.334C304.746,523.542 304.391,514.185 303.996,505.262C303.601,496.34 301.903,488.088 298.903,480.508C298.429,479.244 297.955,478.02 297.482,476.836C297.008,475.651 296.455,474.585 295.823,473.638C289.348,475.217 282.084,476.244 274.03,476.717C272.924,482.719 271.74,488.878 270.476,495.195C269.213,501.512 267.91,507.671 266.568,513.672C265.225,519.673 263.804,525.319 262.304,530.61C260.803,535.9 259.342,540.441 257.921,544.231C256.342,548.179 254.328,551.377 251.88,553.825C249.433,556.273 245.524,557.497 240.154,557.497C236.996,557.497 234.232,556.786 231.863,555.365C229.494,553.943 227.205,551.969 224.994,549.442C225.625,548.969 226.612,548.218 227.955,547.192C229.297,546.165 230.876,544.112 232.692,541.033C234.509,537.953 236.483,533.571 238.615,527.885C240.747,522.2 242.918,514.541 245.129,504.907C245.919,500.959 246.985,496.34 248.327,491.049C249.669,485.759 251.13,479.955 252.71,473.638C246.393,470.163 243.471,465.505 243.945,459.661C244.261,456.029 245.919,452.95 248.919,450.423C251.92,447.896 255.552,446.159 259.816,445.211C261.869,436.999 263.962,428.708 266.094,420.338C268.226,411.968 270.239,404.111 272.134,396.767C274.03,389.424 275.767,382.791 277.346,376.869C278.925,370.946 280.189,366.248 281.136,362.774C278.294,364.669 275.451,366.801 272.608,369.17C270.081,371.223 267.357,373.552 264.436,376.158C261.514,378.764 258.79,381.488 256.263,384.331C254.999,383.383 253.973,382.357 253.183,381.251C252.394,380.146 251.762,379.198 251.288,378.408C250.657,377.461 250.183,376.434 249.867,375.329C248.761,373.118 248.209,370.71 248.209,368.104C248.209,365.498 250.104,362.853 253.894,360.168C255.947,358.747 259.066,356.694 263.251,354.009C267.436,351.324 272.608,348.718 278.767,346.192C284.926,343.665 292.073,341.454 300.206,339.559C308.339,337.664 317.38,336.716 327.33,336.716C337.279,336.716 345.333,338.69 351.492,342.638C357.651,346.586 362.389,351.403 365.706,357.088C369.022,362.774 371.194,368.775 372.22,375.092C373.247,381.409 373.523,386.936 373.049,391.674ZM301.509,456.819C307.036,454.134 312.524,450.818 317.972,446.869C323.421,442.921 328.356,438.183 332.778,432.656C337.2,427.129 340.911,420.851 343.912,413.823C346.912,406.796 348.808,398.86 349.597,390.016C350.229,382.12 349.716,375.526 348.057,370.236C346.399,364.945 343.951,360.721 340.714,357.562C337.476,354.404 333.805,352.153 329.698,350.811C325.592,349.469 321.486,348.797 317.38,348.797C313.59,348.797 309.76,349.35 305.891,350.456C302.022,351.561 298.271,352.982 294.639,354.72C295.113,354.877 295.665,355.272 296.297,355.904C296.613,356.378 296.968,356.97 297.363,357.681C297.758,358.391 298.034,359.141 298.192,359.931C294.56,375.25 291.638,388.042 289.427,398.307C287.216,408.572 285.4,416.942 283.979,423.417C282.242,430.998 280.978,437.078 280.189,441.658C280.031,442.29 279.636,444.895 279.478,445.685C282.952,446.475 286.585,447.698 290.375,449.357C294.165,451.015 297.876,453.502 301.509,456.819Z" style="fill-rule:nonzero;"/>
    <path class="line letter-6" d="M276.162,464.873C278.057,464.557 279.952,464.202 281.847,463.807C283.742,463.412 285.795,462.899 288.006,462.267C285.321,459.74 281.768,458.161 277.346,457.529C276.872,460.056 276.477,462.504 276.162,464.873ZM373.049,391.674C372.417,398.465 370.641,405.572 367.719,412.994C364.798,420.417 360.731,427.602 355.519,434.551C350.308,441.5 343.991,447.975 336.568,453.976C329.146,459.977 320.697,464.873 311.221,468.663C312.642,471.348 313.985,474.191 315.248,477.191C316.512,480.192 317.617,483.587 318.565,487.377C319.986,492.431 321.21,497.643 322.236,503.012C323.263,508.382 324.132,513.593 324.842,518.647C325.553,523.7 326.185,528.399 326.737,532.742C327.29,537.085 327.724,540.677 328.04,543.52C328.672,548.258 330.212,551.614 332.66,553.588C335.107,555.562 337.871,556.667 340.951,556.904C344.03,557.141 347.11,556.786 350.189,555.838C353.269,554.891 355.677,553.864 357.414,552.759C357.257,552.917 356.388,554.299 354.809,556.904C353.229,559.51 351.097,562.274 348.413,565.195C345.728,568.117 342.53,570.644 338.819,572.776C335.107,574.908 330.962,575.579 326.382,574.789C323.223,574.316 320.42,573.25 317.972,571.591C315.525,569.933 313.393,567.485 311.576,564.248C309.76,561.01 308.299,556.865 307.194,551.811C306.089,546.758 305.378,540.598 305.062,533.334C304.746,523.542 304.391,514.185 303.996,505.262C303.601,496.34 301.903,488.088 298.903,480.508C298.429,479.244 297.955,478.02 297.482,476.836C297.008,475.651 296.455,474.585 295.823,473.638C289.348,475.217 282.084,476.244 274.03,476.717C272.924,482.719 271.74,488.878 270.476,495.195C269.213,501.512 267.91,507.671 266.568,513.672C265.225,519.673 263.804,525.319 262.304,530.61C260.803,535.9 259.342,540.441 257.921,544.231C256.342,548.179 254.328,551.377 251.88,553.825C249.433,556.273 245.524,557.497 240.154,557.497C236.996,557.497 234.232,556.786 231.863,555.365C229.494,553.943 227.205,551.969 224.994,549.442C225.625,548.969 226.612,548.218 227.955,547.192C229.297,546.165 230.876,544.112 232.692,541.033C234.509,537.953 236.483,533.571 238.615,527.885C240.747,522.2 242.918,514.541 245.129,504.907C245.919,500.959 246.985,496.34 248.327,491.049C249.669,485.759 251.13,479.955 252.71,473.638C246.393,470.163 243.471,465.505 243.945,459.661C244.261,456.029 245.919,452.95 248.919,450.423C251.92,447.896 255.552,446.159 259.816,445.211C261.869,436.999 263.962,428.708 266.094,420.338C268.226,411.968 270.239,404.111 272.134,396.767C274.03,389.424 275.767,382.791 277.346,376.869C278.925,370.946 280.189,366.248 281.136,362.774C278.294,364.669 275.451,366.801 272.608,369.17C270.081,371.223 267.357,373.552 264.436,376.158C261.514,378.764 258.79,381.488 256.263,384.331C254.999,383.383 253.973,382.357 253.183,381.251C252.394,380.146 251.762,379.198 251.288,378.408C250.657,377.461 250.183,376.434 249.867,375.329C248.761,373.118 248.209,370.71 248.209,368.104C248.209,365.498 250.104,362.853 253.894,360.168C255.947,358.747 259.066,356.694 263.251,354.009C267.436,351.324 272.608,348.718 278.767,346.192C284.926,343.665 292.073,341.454 300.206,339.559C308.339,337.664 317.38,336.716 327.33,336.716C337.279,336.716 345.333,338.69 351.492,342.638C357.651,346.586 362.389,351.403 365.706,357.088C369.022,362.774 371.194,368.775 372.22,375.092C373.247,381.409 373.523,386.936 373.049,391.674ZM301.509,456.819C307.036,454.134 312.524,450.818 317.972,446.869C323.421,442.921 328.356,438.183 332.778,432.656C337.2,427.129 340.911,420.851 343.912,413.823C346.912,406.796 348.808,398.86 349.597,390.016C350.229,382.12 349.716,375.526 348.057,370.236C346.399,364.945 343.951,360.721 340.714,357.562C337.476,354.404 333.805,352.153 329.698,350.811C325.592,349.469 321.486,348.797 317.38,348.797C313.59,348.797 309.76,349.35 305.891,350.456C302.022,351.561 298.271,352.982 294.639,354.72C295.113,354.877 295.665,355.272 296.297,355.904C296.613,356.378 296.968,356.97 297.363,357.681C297.758,358.391 298.034,359.141 298.192,359.931C294.56,375.25 291.638,388.042 289.427,398.307C287.216,408.572 285.4,416.942 283.979,423.417C282.242,430.998 280.978,437.078 280.189,441.658C280.031,442.29 279.636,444.895 279.478,445.685C282.952,446.475 286.585,447.698 290.375,449.357C294.165,451.015 297.876,453.502 301.509,456.819Z" style="fill-rule:nonzero;"/>
    
    <!-- i -->
    <path class="background lastname" d="M421.611,376.513C421.138,378.251 420.23,379.948 418.887,381.606C417.545,383.265 416.044,384.607 414.386,385.634C412.728,386.66 411.03,387.331 409.293,387.647C407.556,387.963 406.135,387.647 405.029,386.7C401.713,384.173 399.976,381.449 399.818,378.527C399.66,375.605 400.37,372.842 401.95,370.236C403.529,367.63 405.503,365.419 407.872,363.603C410.241,361.787 412.294,360.721 414.031,360.405C415.768,360.089 417.229,360.444 418.413,361.471C419.598,362.497 420.506,363.84 421.138,365.498C421.769,367.156 422.125,369.012 422.204,371.065C422.283,373.118 422.085,374.934 421.611,376.513ZM388.921,426.971C389.71,426.023 391.211,425.234 393.422,424.602C395.633,423.97 397.922,423.457 400.291,423.062C402.66,422.667 404.832,422.43 406.806,422.351C408.78,422.272 409.925,422.312 410.241,422.47C410.399,422.628 410.004,424.286 409.056,427.444C408.109,430.603 406.924,434.314 405.503,438.578C404.082,442.842 402.581,447.225 401.002,451.726C399.423,456.226 398.238,459.898 397.449,462.741C396.659,465.584 395.712,468.782 394.606,472.335C393.501,475.888 392.514,479.363 391.645,482.758C390.776,486.153 390.184,489.351 389.868,492.352C389.552,495.353 389.789,497.643 390.579,499.222C391.369,501.117 392.237,502.42 393.185,503.13C394.132,503.841 395.159,504.196 396.264,504.196C399.423,504.196 403.41,502.459 408.227,498.985C413.044,495.511 417.94,491.365 422.914,486.548C427.889,481.732 432.508,476.836 436.772,471.861C441.036,466.886 444.195,462.899 446.248,459.898C447.511,458.319 448.814,457.292 450.156,456.819C451.499,456.345 452.604,456.424 453.473,457.056C454.342,457.687 454.815,458.714 454.894,460.135C454.973,461.556 454.46,463.215 453.354,465.11C450.828,469.532 447.116,474.783 442.221,480.863C437.325,486.943 432.113,492.786 426.586,498.393C421.059,503.999 415.65,508.776 410.359,512.724C405.069,516.673 400.765,518.726 397.449,518.884C394.764,519.042 392.119,518.607 389.513,517.581C386.907,516.554 384.538,515.133 382.406,513.317C380.274,511.501 378.498,509.369 377.076,506.921C375.655,504.473 374.865,501.907 374.707,499.222C374.234,495.274 374.234,489.865 374.707,482.995C375.181,476.125 376.05,469.097 377.313,461.912C378.577,454.726 380.195,447.896 382.169,441.421C384.143,434.946 386.394,430.129 388.921,426.971Z" style="fill-rule:nonzero;"/>
    <path class="line letter-7" d="M421.611,376.513C421.138,378.251 420.23,379.948 418.887,381.606C417.545,383.265 416.044,384.607 414.386,385.634C412.728,386.66 411.03,387.331 409.293,387.647C407.556,387.963 406.135,387.647 405.029,386.7C401.713,384.173 399.976,381.449 399.818,378.527C399.66,375.605 400.37,372.842 401.95,370.236C403.529,367.63 405.503,365.419 407.872,363.603C410.241,361.787 412.294,360.721 414.031,360.405C415.768,360.089 417.229,360.444 418.413,361.471C419.598,362.497 420.506,363.84 421.138,365.498C421.769,367.156 422.125,369.012 422.204,371.065C422.283,373.118 422.085,374.934 421.611,376.513ZM388.921,426.971C389.71,426.023 391.211,425.234 393.422,424.602C395.633,423.97 397.922,423.457 400.291,423.062C402.66,422.667 404.832,422.43 406.806,422.351C408.78,422.272 409.925,422.312 410.241,422.47C410.399,422.628 410.004,424.286 409.056,427.444C408.109,430.603 406.924,434.314 405.503,438.578C404.082,442.842 402.581,447.225 401.002,451.726C399.423,456.226 398.238,459.898 397.449,462.741C396.659,465.584 395.712,468.782 394.606,472.335C393.501,475.888 392.514,479.363 391.645,482.758C390.776,486.153 390.184,489.351 389.868,492.352C389.552,495.353 389.789,497.643 390.579,499.222C391.369,501.117 392.237,502.42 393.185,503.13C394.132,503.841 395.159,504.196 396.264,504.196C399.423,504.196 403.41,502.459 408.227,498.985C413.044,495.511 417.94,491.365 422.914,486.548C427.889,481.732 432.508,476.836 436.772,471.861C441.036,466.886 444.195,462.899 446.248,459.898C447.511,458.319 448.814,457.292 450.156,456.819C451.499,456.345 452.604,456.424 453.473,457.056C454.342,457.687 454.815,458.714 454.894,460.135C454.973,461.556 454.46,463.215 453.354,465.11C450.828,469.532 447.116,474.783 442.221,480.863C437.325,486.943 432.113,492.786 426.586,498.393C421.059,503.999 415.65,508.776 410.359,512.724C405.069,516.673 400.765,518.726 397.449,518.884C394.764,519.042 392.119,518.607 389.513,517.581C386.907,516.554 384.538,515.133 382.406,513.317C380.274,511.501 378.498,509.369 377.076,506.921C375.655,504.473 374.865,501.907 374.707,499.222C374.234,495.274 374.234,489.865 374.707,482.995C375.181,476.125 376.05,469.097 377.313,461.912C378.577,454.726 380.195,447.896 382.169,441.421C384.143,434.946 386.394,430.129 388.921,426.971Z" style="fill-rule:nonzero;"/>
    
    <!-- e -->
    <path class="background lastname" d="M543.372,466.768C538.635,473.717 533.265,480.468 527.264,487.022C521.263,493.576 514.906,499.419 508.194,504.552C501.482,509.684 494.613,513.83 487.585,516.988C480.557,520.147 473.727,521.726 467.094,521.726C463.62,521.726 459.869,520.897 455.842,519.239C451.815,517.581 448.143,515.014 444.826,511.54C441.51,508.066 438.865,503.565 436.891,498.037C434.917,492.51 434.324,485.798 435.114,477.902C435.746,471.427 437.759,464.597 441.155,457.411C444.55,450.225 448.735,443.632 453.71,437.631C458.684,431.63 464.291,426.655 470.529,422.707C476.767,418.759 483.045,416.784 489.362,416.784C495.363,416.784 499.706,418.285 502.391,421.285C505.075,424.286 506.26,427.997 505.944,432.419C505.47,437.315 504.088,441.816 501.798,445.922C499.508,450.028 496.784,453.739 493.626,457.056C490.467,460.372 487.111,463.373 483.558,466.057C480.005,468.742 476.649,471.19 473.49,473.401C470.016,475.77 466.699,478.02 463.541,480.152C460.382,482.284 457.618,484.219 455.25,485.956C455.408,489.904 456.118,493.221 457.382,495.905C458.645,498.59 460.224,500.762 462.119,502.42C464.014,504.078 466.186,505.262 468.634,505.973C471.082,506.684 473.569,507.039 476.096,507.039C481.465,507.039 487.072,505.341 492.915,501.946C498.758,498.551 504.483,494.445 510.089,489.628C515.696,484.811 520.907,479.797 525.724,474.585C530.541,469.374 534.528,464.873 537.687,461.083C538.792,459.819 539.937,459.069 541.122,458.832C542.306,458.595 543.254,458.753 543.965,459.306C544.675,459.859 545.031,460.806 545.031,462.149C545.031,463.491 544.478,465.031 543.372,466.768ZM482.729,430.287C480.834,430.287 478.583,431.235 475.977,433.13C473.372,435.025 470.805,437.749 468.278,441.302C465.752,444.856 463.383,449.199 461.172,454.331C458.961,459.464 457.303,465.347 456.197,471.98C458.092,470.558 460.145,469.097 462.356,467.597C464.567,466.097 466.778,464.478 468.989,462.741C475.78,457.529 480.518,452.95 483.203,449.001C485.887,445.053 487.388,441.658 487.703,438.815C488.019,435.815 487.703,433.643 486.756,432.301C485.808,430.958 484.466,430.287 482.729,430.287Z" style="fill-rule:nonzero;"/>
    <path class="line letter-8" d="M543.372,466.768C538.635,473.717 533.265,480.468 527.264,487.022C521.263,493.576 514.906,499.419 508.194,504.552C501.482,509.684 494.613,513.83 487.585,516.988C480.557,520.147 473.727,521.726 467.094,521.726C463.62,521.726 459.869,520.897 455.842,519.239C451.815,517.581 448.143,515.014 444.826,511.54C441.51,508.066 438.865,503.565 436.891,498.037C434.917,492.51 434.324,485.798 435.114,477.902C435.746,471.427 437.759,464.597 441.155,457.411C444.55,450.225 448.735,443.632 453.71,437.631C458.684,431.63 464.291,426.655 470.529,422.707C476.767,418.759 483.045,416.784 489.362,416.784C495.363,416.784 499.706,418.285 502.391,421.285C505.075,424.286 506.26,427.997 505.944,432.419C505.47,437.315 504.088,441.816 501.798,445.922C499.508,450.028 496.784,453.739 493.626,457.056C490.467,460.372 487.111,463.373 483.558,466.057C480.005,468.742 476.649,471.19 473.49,473.401C470.016,475.77 466.699,478.02 463.541,480.152C460.382,482.284 457.618,484.219 455.25,485.956C455.408,489.904 456.118,493.221 457.382,495.905C458.645,498.59 460.224,500.762 462.119,502.42C464.014,504.078 466.186,505.262 468.634,505.973C471.082,506.684 473.569,507.039 476.096,507.039C481.465,507.039 487.072,505.341 492.915,501.946C498.758,498.551 504.483,494.445 510.089,489.628C515.696,484.811 520.907,479.797 525.724,474.585C530.541,469.374 534.528,464.873 537.687,461.083C538.792,459.819 539.937,459.069 541.122,458.832C542.306,458.595 543.254,458.753 543.965,459.306C544.675,459.859 545.031,460.806 545.031,462.149C545.031,463.491 544.478,465.031 543.372,466.768ZM482.729,430.287C480.834,430.287 478.583,431.235 475.977,433.13C473.372,435.025 470.805,437.749 468.278,441.302C465.752,444.856 463.383,449.199 461.172,454.331C458.961,459.464 457.303,465.347 456.197,471.98C458.092,470.558 460.145,469.097 462.356,467.597C464.567,466.097 466.778,464.478 468.989,462.741C475.78,457.529 480.518,452.95 483.203,449.001C485.887,445.053 487.388,441.658 487.703,438.815C488.019,435.815 487.703,433.643 486.756,432.301C485.808,430.958 484.466,430.287 482.729,430.287Z" style="fill-rule:nonzero;"/>
    
    <!-- h -->
    <path class="background lastname" d="M648.551,463.925C649.656,462.662 650.801,461.991 651.986,461.912C653.17,461.833 654.118,462.149 654.829,462.859C655.539,463.57 655.855,464.636 655.776,466.057C655.697,467.479 655.026,469.058 653.763,470.795C650.762,474.901 647.288,479.126 643.339,483.469C639.391,487.812 635.167,492.036 630.666,496.142C626.165,500.248 621.625,504.118 617.045,507.75C612.465,511.382 608.043,514.383 603.779,516.752C599.041,519.436 595.054,520.779 591.816,520.779C588.579,520.779 585.381,518.726 582.222,514.62C579.379,510.987 577.998,507.079 578.077,502.894C578.155,498.709 579.064,493.458 580.801,487.14C581.906,483.192 583.446,478.494 585.42,473.046C587.394,467.597 588.973,462.346 590.158,457.292C591.342,452.239 591.698,447.935 591.224,444.382C590.75,440.829 588.697,439.052 585.065,439.052C582.538,439.052 579.814,439.921 576.892,441.658C573.97,443.395 571.049,445.645 568.127,448.409C565.206,451.173 562.402,454.292 559.718,457.766C557.033,461.241 554.664,464.636 552.611,467.952C551.348,474.112 550.084,480.192 548.821,486.193C547.715,491.247 546.57,496.734 545.386,502.657C544.201,508.579 543.056,513.83 541.951,518.41C541.003,519.199 539.977,519.752 538.871,520.068C537.766,520.384 536.739,520.542 535.792,520.542C534.686,520.542 533.581,520.463 532.475,520.305C531.212,519.989 530.028,519.515 528.922,518.884C527.975,518.252 527.027,517.423 526.079,516.396C525.132,515.37 524.421,513.988 523.947,512.251C531.054,483.034 536.66,459.582 540.767,441.895C544.873,424.207 548.031,410.704 550.242,401.387C552.769,390.332 554.506,382.672 555.454,378.408C555.927,375.408 556.322,372.486 556.638,369.644C556.954,367.117 557.112,364.511 557.112,361.826C557.112,359.141 556.875,356.694 556.401,354.483C557.665,353.693 559.046,353.061 560.547,352.588C562.047,352.114 563.508,351.719 564.929,351.403C566.666,350.929 568.404,350.535 570.141,350.219C571.878,349.903 573.457,349.745 574.879,349.745C576.142,349.745 577.326,349.863 578.432,350.1C579.537,350.337 580.248,350.85 580.564,351.64C581.511,352.43 581.946,354.009 581.867,356.378C581.788,358.747 581.59,361.195 581.275,363.721C580.643,366.722 579.932,369.959 579.143,373.434C575.826,386.226 572.115,398.662 568.009,410.744C563.903,422.825 560.112,435.736 556.638,449.475C558.691,446.317 561.139,443.079 563.982,439.763C566.824,436.446 569.943,433.406 573.339,430.642C576.734,427.879 580.327,425.589 584.117,423.773C587.907,421.957 591.935,421.048 596.199,421.048C598.409,421.048 600.502,421.404 602.476,422.114C604.45,422.825 606.187,424.01 607.688,425.668C609.188,427.326 610.333,429.537 611.123,432.301C611.912,435.064 612.228,438.499 612.07,442.605C612.07,445.132 611.794,447.738 611.241,450.423C610.688,453.107 609.938,456.069 608.991,459.306C608.043,462.544 606.819,466.136 605.319,470.084C603.818,474.033 602.042,478.612 599.989,483.824C598.567,487.456 597.462,490.536 596.672,493.063C595.883,495.59 596.041,497.8 597.146,499.696C598.567,502.222 601.371,502.815 605.556,501.472C609.741,500.13 616.018,496.063 624.388,489.272C626.283,487.693 628.415,485.719 630.784,483.35C633.153,480.981 635.443,478.573 637.654,476.125C639.865,473.677 641.918,471.348 643.813,469.137C645.708,466.926 647.288,465.189 648.551,463.925Z" style="fill-rule:nonzero;"/>
    <path class="line letter-9" d="M648.551,463.925C649.656,462.662 650.801,461.991 651.986,461.912C653.17,461.833 654.118,462.149 654.829,462.859C655.539,463.57 655.855,464.636 655.776,466.057C655.697,467.479 655.026,469.058 653.763,470.795C650.762,474.901 647.288,479.126 643.339,483.469C639.391,487.812 635.167,492.036 630.666,496.142C626.165,500.248 621.625,504.118 617.045,507.75C612.465,511.382 608.043,514.383 603.779,516.752C599.041,519.436 595.054,520.779 591.816,520.779C588.579,520.779 585.381,518.726 582.222,514.62C579.379,510.987 577.998,507.079 578.077,502.894C578.155,498.709 579.064,493.458 580.801,487.14C581.906,483.192 583.446,478.494 585.42,473.046C587.394,467.597 588.973,462.346 590.158,457.292C591.342,452.239 591.698,447.935 591.224,444.382C590.75,440.829 588.697,439.052 585.065,439.052C582.538,439.052 579.814,439.921 576.892,441.658C573.97,443.395 571.049,445.645 568.127,448.409C565.206,451.173 562.402,454.292 559.718,457.766C557.033,461.241 554.664,464.636 552.611,467.952C551.348,474.112 550.084,480.192 548.821,486.193C547.715,491.247 546.57,496.734 545.386,502.657C544.201,508.579 543.056,513.83 541.951,518.41C541.003,519.199 539.977,519.752 538.871,520.068C537.766,520.384 536.739,520.542 535.792,520.542C534.686,520.542 533.581,520.463 532.475,520.305C531.212,519.989 530.028,519.515 528.922,518.884C527.975,518.252 527.027,517.423 526.079,516.396C525.132,515.37 524.421,513.988 523.947,512.251C531.054,483.034 536.66,459.582 540.767,441.895C544.873,424.207 548.031,410.704 550.242,401.387C552.769,390.332 554.506,382.672 555.454,378.408C555.927,375.408 556.322,372.486 556.638,369.644C556.954,367.117 557.112,364.511 557.112,361.826C557.112,359.141 556.875,356.694 556.401,354.483C557.665,353.693 559.046,353.061 560.547,352.588C562.047,352.114 563.508,351.719 564.929,351.403C566.666,350.929 568.404,350.535 570.141,350.219C571.878,349.903 573.457,349.745 574.879,349.745C576.142,349.745 577.326,349.863 578.432,350.1C579.537,350.337 580.248,350.85 580.564,351.64C581.511,352.43 581.946,354.009 581.867,356.378C581.788,358.747 581.59,361.195 581.275,363.721C580.643,366.722 579.932,369.959 579.143,373.434C575.826,386.226 572.115,398.662 568.009,410.744C563.903,422.825 560.112,435.736 556.638,449.475C558.691,446.317 561.139,443.079 563.982,439.763C566.824,436.446 569.943,433.406 573.339,430.642C576.734,427.879 580.327,425.589 584.117,423.773C587.907,421.957 591.935,421.048 596.199,421.048C598.409,421.048 600.502,421.404 602.476,422.114C604.45,422.825 606.187,424.01 607.688,425.668C609.188,427.326 610.333,429.537 611.123,432.301C611.912,435.064 612.228,438.499 612.07,442.605C612.07,445.132 611.794,447.738 611.241,450.423C610.688,453.107 609.938,456.069 608.991,459.306C608.043,462.544 606.819,466.136 605.319,470.084C603.818,474.033 602.042,478.612 599.989,483.824C598.567,487.456 597.462,490.536 596.672,493.063C595.883,495.59 596.041,497.8 597.146,499.696C598.567,502.222 601.371,502.815 605.556,501.472C609.741,500.13 616.018,496.063 624.388,489.272C626.283,487.693 628.415,485.719 630.784,483.35C633.153,480.981 635.443,478.573 637.654,476.125C639.865,473.677 641.918,471.348 643.813,469.137C645.708,466.926 647.288,465.189 648.551,463.925Z" style="fill-rule:nonzero;"/>
    
    <!-- m -->
    <path class="background lastname" d="M749.703,505.144C749.703,501.828 750.058,498.037 750.769,493.773C751.479,489.509 752.387,485.127 753.493,480.626C754.598,476.125 755.704,471.743 756.809,467.479C757.915,463.215 758.862,459.424 759.652,456.108C760.599,452.002 760.521,448.843 759.415,446.632C758.31,444.422 756.414,443.316 753.73,443.316C752.466,443.316 749.979,444.422 746.268,446.632C742.556,448.843 738.529,452.673 734.186,458.122C729.843,463.57 725.579,470.914 721.394,480.152C717.209,489.391 713.932,501.117 711.563,515.33C708.563,516.91 705.72,517.936 703.035,518.41C701.614,518.726 700.351,518.963 699.245,519.12C696.087,519.278 694.034,518.765 693.086,517.581C692.139,516.396 692.296,513.514 693.56,508.934C694.192,506.723 695.337,503.17 696.995,498.274C698.653,493.379 700.272,488.049 701.851,482.284C703.43,476.52 704.812,470.756 705.997,464.991C707.181,459.227 707.773,454.213 707.773,449.949C707.773,446.948 707.26,444.895 706.233,443.79C705.207,442.684 703.746,442.132 701.851,442.132C700.43,442.132 698.061,442.921 694.744,444.5C691.428,446.08 687.717,449.159 683.611,453.739C679.504,458.319 675.438,464.676 671.411,472.809C667.384,480.942 663.949,491.483 661.106,504.433L661.106,503.96C660.79,505.223 660.474,506.486 660.159,507.75C659.843,508.855 659.053,513.751 658.737,514.856L646.893,520.068C646.103,520.384 645.116,520.621 643.932,520.779C642.747,520.937 641.642,520.739 640.615,520.186C639.589,519.634 638.839,518.489 638.365,516.752C637.891,515.014 638.049,512.409 638.839,508.934L653.763,447.106C654.236,445.053 654.631,443.079 654.947,441.184C655.263,439.447 655.46,437.749 655.539,436.091C655.618,434.433 655.5,433.051 655.184,431.945C657.869,430.682 660.238,429.734 662.291,429.103C664.344,428.471 666.002,427.997 667.265,427.681C668.844,427.208 670.187,426.971 671.292,426.971C676.346,426.971 678.004,431.314 676.267,440C675.635,442.526 674.688,446.238 673.424,451.133C676.425,447.343 679.623,443.75 683.018,440.355C686.414,436.96 689.849,433.919 693.323,431.235C696.797,428.55 700.311,426.418 703.865,424.839C707.418,423.259 710.932,422.47 714.406,422.47C717.091,422.47 719.341,423.259 721.157,424.839C722.974,426.418 724.395,428.51 725.421,431.116C726.448,433.722 727.04,436.802 727.198,440.355C727.356,443.908 727.198,447.58 726.724,451.37C729.251,448.054 732.054,444.698 735.134,441.302C738.213,437.907 741.451,434.867 744.846,432.182C748.242,429.498 751.756,427.287 755.388,425.549C759.02,423.812 762.653,422.944 766.285,422.944C770.549,422.944 773.826,424.207 776.116,426.734C778.406,429.261 779.985,432.498 780.853,436.446C781.722,440.394 781.959,444.658 781.564,449.238C781.169,453.818 780.498,458.24 779.551,462.504L771.496,494.484C769.759,502.38 771.417,506.328 776.471,506.328C780.419,506.328 784.762,504.433 789.5,500.643C794.238,496.853 798.857,492.352 803.358,487.14C807.859,481.929 812.083,476.559 816.031,471.032C819.98,465.505 823.296,461.083 825.981,457.766C826.928,456.661 827.915,456.029 828.942,455.871C829.968,455.713 830.837,455.911 831.548,456.463C832.258,457.016 832.653,457.924 832.732,459.188C832.811,460.451 832.377,462.03 831.429,463.925C828.271,469.453 824.402,475.572 819.822,482.284C815.242,488.996 810.228,495.274 804.779,501.117C799.331,506.96 793.527,511.856 787.368,515.804C781.209,519.752 774.813,521.726 768.18,521.726C765.969,521.726 763.797,521.489 761.665,521.016C759.533,520.542 757.559,519.673 755.743,518.41C753.927,517.146 752.466,515.449 751.361,513.317C750.255,511.185 749.703,508.46 749.703,505.144Z" style="fill-rule:nonzero;"/>
    <path class="line letter-10" d="M749.703,505.144C749.703,501.828 750.058,498.037 750.769,493.773C751.479,489.509 752.387,485.127 753.493,480.626C754.598,476.125 755.704,471.743 756.809,467.479C757.915,463.215 758.862,459.424 759.652,456.108C760.599,452.002 760.521,448.843 759.415,446.632C758.31,444.422 756.414,443.316 753.73,443.316C752.466,443.316 749.979,444.422 746.268,446.632C742.556,448.843 738.529,452.673 734.186,458.122C729.843,463.57 725.579,470.914 721.394,480.152C717.209,489.391 713.932,501.117 711.563,515.33C708.563,516.91 705.72,517.936 703.035,518.41C701.614,518.726 700.351,518.963 699.245,519.12C696.087,519.278 694.034,518.765 693.086,517.581C692.139,516.396 692.296,513.514 693.56,508.934C694.192,506.723 695.337,503.17 696.995,498.274C698.653,493.379 700.272,488.049 701.851,482.284C703.43,476.52 704.812,470.756 705.997,464.991C707.181,459.227 707.773,454.213 707.773,449.949C707.773,446.948 707.26,444.895 706.233,443.79C705.207,442.684 703.746,442.132 701.851,442.132C700.43,442.132 698.061,442.921 694.744,444.5C691.428,446.08 687.717,449.159 683.611,453.739C679.504,458.319 675.438,464.676 671.411,472.809C667.384,480.942 663.949,491.483 661.106,504.433L661.106,503.96C660.79,505.223 660.474,506.486 660.159,507.75C659.843,508.855 659.053,513.751 658.737,514.856L646.893,520.068C646.103,520.384 645.116,520.621 643.932,520.779C642.747,520.937 641.642,520.739 640.615,520.186C639.589,519.634 638.839,518.489 638.365,516.752C637.891,515.014 638.049,512.409 638.839,508.934L653.763,447.106C654.236,445.053 654.631,443.079 654.947,441.184C655.263,439.447 655.46,437.749 655.539,436.091C655.618,434.433 655.5,433.051 655.184,431.945C657.869,430.682 660.238,429.734 662.291,429.103C664.344,428.471 666.002,427.997 667.265,427.681C668.844,427.208 670.187,426.971 671.292,426.971C676.346,426.971 678.004,431.314 676.267,440C675.635,442.526 674.688,446.238 673.424,451.133C676.425,447.343 679.623,443.75 683.018,440.355C686.414,436.96 689.849,433.919 693.323,431.235C696.797,428.55 700.311,426.418 703.865,424.839C707.418,423.259 710.932,422.47 714.406,422.47C717.091,422.47 719.341,423.259 721.157,424.839C722.974,426.418 724.395,428.51 725.421,431.116C726.448,433.722 727.04,436.802 727.198,440.355C727.356,443.908 727.198,447.58 726.724,451.37C729.251,448.054 732.054,444.698 735.134,441.302C738.213,437.907 741.451,434.867 744.846,432.182C748.242,429.498 751.756,427.287 755.388,425.549C759.02,423.812 762.653,422.944 766.285,422.944C770.549,422.944 773.826,424.207 776.116,426.734C778.406,429.261 779.985,432.498 780.853,436.446C781.722,440.394 781.959,444.658 781.564,449.238C781.169,453.818 780.498,458.24 779.551,462.504L771.496,494.484C769.759,502.38 771.417,506.328 776.471,506.328C780.419,506.328 784.762,504.433 789.5,500.643C794.238,496.853 798.857,492.352 803.358,487.14C807.859,481.929 812.083,476.559 816.031,471.032C819.98,465.505 823.296,461.083 825.981,457.766C826.928,456.661 827.915,456.029 828.942,455.871C829.968,455.713 830.837,455.911 831.548,456.463C832.258,457.016 832.653,457.924 832.732,459.188C832.811,460.451 832.377,462.03 831.429,463.925C828.271,469.453 824.402,475.572 819.822,482.284C815.242,488.996 810.228,495.274 804.779,501.117C799.331,506.96 793.527,511.856 787.368,515.804C781.209,519.752 774.813,521.726 768.18,521.726C765.969,521.726 763.797,521.489 761.665,521.016C759.533,520.542 757.559,519.673 755.743,518.41C753.927,517.146 752.466,515.449 751.361,513.317C750.255,511.185 749.703,508.46 749.703,505.144Z" style="fill-rule:nonzero;"/>
</svg>
